<svg width="323" height="34" viewBox="0 0 323 34" fill="none" xmlns="http://www.w3.org/2000/svg">
<g clip-path="url(#clip0_138_2)">
<path d="M236.255 11.6611H225.621V17.2261H236.255V11.6611Z" fill="#ED1C24"/>
<path d="M197.565 11.6611H186.931V17.2261H197.565V11.6611Z" fill="#ED1C24"/>
<path d="M60.3007 0H43.3477C38.0407 0 36.3457 1.436 36.3457 7.008V22.633C36.3457 28.205 38.0407 29.641 43.3477 29.641H48.7107V33.698H54.9437V29.64H60.3007C65.6077 29.64 67.3027 28.204 67.3027 22.632V7.008C67.3027 1.436 65.6067 0 60.3007 0ZM60.7377 24.068H54.9427V20.888H48.7097V24.068H42.9097V5.087H60.7377V24.068Z" fill="white"/>
<path d="M94.6972 24.068H79.0572V0H72.4922V22.632C72.4922 28.204 74.1882 29.64 79.4942 29.64H94.2602C99.5672 29.64 101.263 28.204 101.263 22.632V0H94.6982L94.6972 24.068Z" fill="white"/>
<path d="M117.949 0L102.909 29.64H109.089L112.18 23.149H129.023L132.216 29.64H139.17L123.924 0H117.949ZM114.808 17.807L120.731 5.744L126.448 17.807H114.808Z" fill="white"/>
<path d="M162.973 18.439C167.295 18.439 169.319 16.831 169.319 12.695V5.745C169.319 1.609 167.295 0 162.973 0H141.861V29.64H148.316V18.439H152.674L162.863 29.64H171.764L160.442 18.439H162.973ZM148.317 13.384V5.112H160.02C162.044 5.112 162.974 5.514 162.974 7.467V11.029C162.974 12.982 162.044 13.384 160.02 13.384H148.317Z" fill="white"/>
<path d="M220.194 5.055H238.68V0H213.629V29.64H238.953V24.068H220.194V5.055Z" fill="white"/>
<path d="M265.715 15.567C265.715 16.486 265.824 18.209 265.988 20.679C265.004 19.473 248.271 0 248.271 0H243.785V29.64H249.694V13.614C249.694 12.753 249.639 11.201 249.421 8.904C250.187 9.823 267.137 29.64 267.137 29.64H271.623V0H265.715V15.567Z" fill="white"/>
<path d="M283.619 0H277.055V29.64H283.619V0Z" fill="white"/>
<path d="M307.574 13.614L319.28 0H312.1L303.932 10.052L295.348 0H287.076L300.03 14.418L287.283 29.64H294.672L303.725 18.152L313.557 29.64H322.037L307.574 13.614Z" fill="white"/>
<path d="M181.504 5.055H199.988V0H174.939V29.64H200.262V24.068H181.504V5.055Z" fill="white"/>
<path d="M0 24.068C0 28.426 2.171 29.64 6.991 29.64H24.597C29.904 29.64 31.654 28.204 31.654 22.632V18.554C31.654 12.982 29.904 11.546 24.597 11.546H6.982V5.091H25.473V7.815L31.272 7.813V6.491C31.272 1.379 29.303 0 24.269 0H8.24C2.933 0 1.238 1.436 1.238 7.008V10.282C1.238 15.854 2.934 17.29 8.24 17.29H25.856V24.067H0V24.068Z" fill="white"/>
</g>
<defs>
<clipPath id="clip0_138_2">
<rect width="322.037" height="33.697" fill="white"/>
</clipPath>
</defs>
</svg>
